# xmcd
#
# Track frame offsets: 
#        187
#        24427
#        41952
#        61855
#        80507
#        103212
#        125745
#        144605
#        164717
#        182100
#
# Disc length: 2680 seconds
#
# Revision: 3
# Processed by: cddbd v1.4PL0 Copyright (c) Steve Scherf et al.
# Submitted via: ExactAudioCopy v0.95a3
#
DISCID=930a760a
DTITLE=Paula Abdul - Forever Your Girl
DYEAR=1988
DGENRE=Pop
TTITLE0=The Way That You Love Me
TTITLE1=Knocked Out
TTITLE2=Opposites Attract
TTITLE3=State Of Attraction
TTITLE4=I Need You
TTITLE5=Forever Your Girl
TTITLE6=Straight Up
TTITLE7=Next To You
TTITLE8=Cold Hearted
TTITLE9=One Or The Other
EXTD=
EXTT0=
EXTT1=
EXTT2=
EXTT3=
EXTT4=
EXTT5=
EXTT6=
EXTT7=
EXTT8=
EXTT9=
PLAYORDER=
